<svg xmlns="http://www.w3.org/2000/svg" width="320" height="320" fill="none" stroke="rgba(255,255,255,0.07)" stroke-width="1.2" stroke-linecap="round" stroke-linejoin="round">

  <!-- Row 1 -->
  <g transform="translate(15,15) rotate(-8)">
    <rect x="0" y="6" width="22" height="16" rx="1"/>
    <path d="M0 6 L4 0 L8 6 M8 6 L12 0 L16 6 M16 6 L20 0 L22 3"/>
  </g>

  <g transform="translate(75,20) rotate(5)">
    <polygon points="0,0 0,18 16,9"/>
  </g>

  <g transform="translate(130,12) rotate(-3)">
    <circle cx="11" cy="11" r="11"/>
    <circle cx="11" cy="11" r="3"/>
    <circle cx="11" cy="4" r="1.5"/>
    <circle cx="4" cy="14" r="1.5"/>
    <circle cx="18" cy="14" r="1.5"/>
  </g>

  <g transform="translate(190,18) rotate(6)">
    <rect x="0" y="3" width="16" height="12" rx="2"/>
    <path d="M16 6 L24 2 L24 16 L16 12"/>
  </g>

  <g transform="translate(248,10) rotate(-5)">
    <circle cx="12" cy="12" r="12"/>
    <polygon points="9,6 9,18 19,12"/>
  </g>

  <g transform="translate(295,22) rotate(10)">
    <polygon points="0,0 0,14 12,7"/>
  </g>

  <!-- Row 2 -->
  <g transform="translate(20,70) rotate(3)">
    <rect x="0" y="0" width="10" height="24" rx="1"/>
    <rect x="1" y="3" width="2" height="2"/>
    <rect x="7" y="3" width="2" height="2"/>
    <rect x="1" y="19" width="2" height="2"/>
    <rect x="7" y="19" width="2" height="2"/>
    <rect x="2" y="8" width="6" height="8" rx="0.5"/>
  </g>

  <g transform="translate(65,75) rotate(-5)">
    <circle cx="6" cy="8" r="5" fill="rgba(255,255,255,0.07)"/>
    <text x="14" y="11" font-size="8" font-family="monospace" fill="rgba(255,255,255,0.07)" stroke="none">REC</text>
  </g>

  <g transform="translate(125,68) rotate(2)">
    <rect x="0" y="0" width="28" height="4" rx="1"/>
    <rect x="3" y="7" width="22" height="4" rx="1"/>
    <rect x="1" y="14" width="26" height="4" rx="1"/>
  </g>

  <g transform="translate(185,72) rotate(-10)">
    <circle cx="4" cy="4" r="4"/>
    <circle cx="4" cy="18" r="4"/>
    <path d="M7 6 L18 16 M7 16 L18 6"/>
  </g>

  <g transform="translate(240,65) rotate(7)">
    <path d="M0 0 L14 0 L20 6 L20 24 L0 24 Z"/>
    <path d="M14 0 L14 6 L20 6"/>
    <polygon points="7,10 7,20 15,15"/>
  </g>

  <g transform="translate(290,78) rotate(-4)">
    <path d="M0 10 L3 4 L6 14 L9 2 L12 16 L15 6 L18 12 L21 8 L24 10"/>
  </g>

  <!-- Row 3 -->
  <g transform="translate(12,130) rotate(-6)">
    <rect x="4" y="8" width="20" height="12" rx="1"/>
    <circle cx="8" cy="6" r="5"/>
    <circle cx="20" cy="6" r="3"/>
    <rect x="24" y="11" width="6" height="2"/>
  </g>

  <g transform="translate(78,135) rotate(8)">
    <rect x="0" y="0" width="26" height="18" rx="2"/>
    <polygon points="10,5 10,13 18,9"/>
    <path d="M10 20 L16 20 M13 18 L13 20"/>
  </g>

  <g transform="translate(140,128) rotate(-3)">
    <path d="M0 7 L0 13 L4 13 L10 17 L10 3 L4 7 Z"/>
    <path d="M13 6 Q16 10 13 14"/>
    <path d="M15 3 Q20 10 15 17"/>
  </g>

  <g transform="translate(195,140) rotate(4)">
    <polygon points="12,0 0,8 12,16"/>
    <polygon points="24,0 12,8 24,16"/>
  </g>

  <g transform="translate(250,125) rotate(-7)">
    <rect x="0" y="2" width="14" height="10" rx="1.5"/>
    <path d="M14 4 L20 1 L20 13 L14 10"/>
  </g>

  <g transform="translate(296,132) rotate(6)">
    <rect x="0" y="0" width="20" height="16" rx="1"/>
    <rect x="3" y="3" width="14" height="10" rx="0.5"/>
  </g>

  <!-- Row 4 -->
  <g transform="translate(25,195) rotate(10)">
    <rect x="0" y="5" width="18" height="13" rx="1"/>
    <path d="M0 5 L3 0 L7 5 M7 5 L10 0 L14 5 M14 5 L17 1 L18 3"/>
  </g>

  <g transform="translate(80,190) rotate(-3)">
    <polygon points="0,0 12,8 0,16"/>
    <polygon points="12,0 24,8 12,16"/>
  </g>

  <g transform="translate(135,200) rotate(-8)">
    <circle cx="10" cy="10" r="10"/>
    <path d="M10 0 L10 10 M10 10 L18 4 M10 10 L18 16 M10 10 L2 16 M10 10 L2 4"/>
  </g>

  <g transform="translate(195,192) rotate(5)">
    <rect x="6" y="0" width="8" height="14" rx="4"/>
    <path d="M3 10 Q3 20 10 20 Q17 20 17 10"/>
    <path d="M10 20 L10 24 M6 24 L14 24"/>
  </g>

  <g transform="translate(248,198) rotate(-6)">
    <polygon points="0,0 0,18 16,9"/>
  </g>

  <g transform="translate(290,188) rotate(3)">
    <rect x="0" y="3" width="16" height="12" rx="2"/>
    <path d="M16 6 L24 2 L24 16 L16 12"/>
  </g>

  <!-- Row 5 -->
  <g transform="translate(18,258) rotate(4)">
    <circle cx="12" cy="12" r="12"/>
    <polygon points="9,6 9,18 19,12"/>
  </g>

  <g transform="translate(70,265) rotate(-9)">
    <rect x="0" y="0" width="10" height="24" rx="1"/>
    <rect x="1" y="3" width="2" height="2"/>
    <rect x="7" y="3" width="2" height="2"/>
    <rect x="1" y="19" width="2" height="2"/>
    <rect x="7" y="19" width="2" height="2"/>
    <rect x="2" y="8" width="6" height="8" rx="0.5"/>
  </g>

  <g transform="translate(120,260) rotate(7)">
    <circle cx="11" cy="11" r="11"/>
    <circle cx="11" cy="11" r="3"/>
    <circle cx="11" cy="4" r="1.5"/>
    <circle cx="4" cy="14" r="1.5"/>
    <circle cx="18" cy="14" r="1.5"/>
  </g>

  <g transform="translate(180,268) rotate(-4)">
    <rect x="0" y="0" width="28" height="4" rx="1"/>
    <rect x="3" y="7" width="22" height="4" rx="1"/>
    <rect x="1" y="14" width="26" height="4" rx="1"/>
  </g>

  <g transform="translate(240,255) rotate(9)">
    <circle cx="4" cy="4" r="4"/>
    <circle cx="4" cy="18" r="4"/>
    <path d="M7 6 L18 16 M7 16 L18 6"/>
  </g>

  <g transform="translate(288,262) rotate(-2)">
    <path d="M0 10 L3 4 L6 14 L9 2 L12 16 L15 6 L18 12 L21 8 L24 10"/>
  </g>

</svg>
